<mxfile host="app.diagrams.net" modified="2021-10-28T02:02:46.360Z" agent="5.0 (X11; Linux x86_64) AppleWebKit/537.36 (KHTML, like Gecko) Chrome/92.0.4515.131 Safari/537.36" etag="KbVJvOwvXt0orS1udaqv" version="15.6.1" type="github" pages="2">
  <diagram id="GEklgDhc1H4WAajkZLwl" name="Page-1">
    <mxGraphModel dx="1990" dy="1166" grid="1" gridSize="10" guides="1" tooltips="1" connect="1" arrows="1" fold="1" page="1" pageScale="1" pageWidth="827" pageHeight="1169" math="0" shadow="0">
      <root>
        <mxCell id="0" />
        <mxCell id="1" parent="0" />
        <mxCell id="Ar353TBJQhKHL542_Uao-21" value="&lt;p class=&quot;MsoNormal&quot; style=&quot;margin: 0pt 0pt 0.0001pt ; text-indent: 10pt ; text-align: justify ; line-height: 24px ; font-size: 12pt&quot;&gt;&lt;span style=&quot;font-size: 12pt&quot;&gt;性能分析子系统&lt;/span&gt;&lt;/p&gt;" style="verticalAlign=top;align=left;spacingTop=8;spacingLeft=2;spacingRight=12;shape=cube;size=10;direction=south;fontStyle=4;html=1;" vertex="1" parent="1">
          <mxGeometry x="30" y="50" width="750" height="340" as="geometry" />
        </mxCell>
        <mxCell id="Ar353TBJQhKHL542_Uao-23" value="整机性能部件&#xa;&#xa;获取整机性能信息&#xa;并可视化显示" style="shape=module;align=left;spacingLeft=20;align=center;verticalAlign=top;fontSize=10;" vertex="1" parent="1">
          <mxGeometry x="470" y="270" width="110" height="60" as="geometry" />
        </mxCell>
        <mxCell id="Ar353TBJQhKHL542_Uao-24" value="整机内存部件&#xa;&#xa;整机内存可视化及&#xa;对数据进行操作" style="shape=module;align=left;spacingLeft=20;align=center;verticalAlign=top;fontSize=10;" vertex="1" parent="1">
          <mxGeometry x="70" y="270" width="110" height="60" as="geometry" />
        </mxCell>
        <mxCell id="Ar353TBJQhKHL542_Uao-25" value="进程内存部件&#xa;&#xa;进程内存可视化及&#xa;对数据进行相关操作" style="shape=module;align=left;spacingLeft=20;align=center;verticalAlign=top;fontSize=10;" vertex="1" parent="1">
          <mxGeometry x="200" y="270" width="110" height="60" as="geometry" />
        </mxCell>
        <mxCell id="Ar353TBJQhKHL542_Uao-26" value="slab信息及二进制部件&#xa;&#xa;对slab信息及二进制信息&#xa;可视化显示" style="shape=module;align=left;spacingLeft=20;align=center;verticalAlign=top;fontSize=10;" vertex="1" parent="1">
          <mxGeometry x="330" y="270" width="120" height="60" as="geometry" />
        </mxCell>
        <mxCell id="Ar353TBJQhKHL542_Uao-27" value="进程性能部件&#xa;&#xa;获取进程CPU占用率等&#xa;性能信息并可视化显示" style="shape=module;align=left;spacingLeft=20;align=center;verticalAlign=top;fontSize=10;" vertex="1" parent="1">
          <mxGeometry x="600" y="270" width="140" height="60" as="geometry" />
        </mxCell>
        <mxCell id="Ar353TBJQhKHL542_Uao-28" value="性能分析首页部件&#xa;&#xa;部分性能分析数据可视化，支持跳转到其余部件" style="shape=module;align=left;spacingLeft=20;align=center;verticalAlign=top;fontSize=10;" vertex="1" parent="1">
          <mxGeometry x="220" y="110" width="300" height="60" as="geometry" />
        </mxCell>
        <mxCell id="Ar353TBJQhKHL542_Uao-35" value="Use" style="endArrow=open;endSize=12;dashed=1;html=1;fontSize=10;exitX=0.5;exitY=1;exitDx=0;exitDy=0;entryX=0.5;entryY=0;entryDx=0;entryDy=0;" edge="1" source="Ar353TBJQhKHL542_Uao-28" target="Ar353TBJQhKHL542_Uao-24" parent="1">
          <mxGeometry width="160" relative="1" as="geometry">
            <mxPoint x="135" y="340" as="sourcePoint" />
            <mxPoint x="205" y="430" as="targetPoint" />
          </mxGeometry>
        </mxCell>
        <mxCell id="Ar353TBJQhKHL542_Uao-36" value="Use" style="endArrow=open;endSize=12;dashed=1;html=1;fontSize=10;" edge="1" target="Ar353TBJQhKHL542_Uao-26" parent="1">
          <mxGeometry width="160" relative="1" as="geometry">
            <mxPoint x="370" y="170" as="sourcePoint" />
            <mxPoint x="620" y="370" as="targetPoint" />
          </mxGeometry>
        </mxCell>
        <mxCell id="Ar353TBJQhKHL542_Uao-37" value="Use" style="endArrow=open;endSize=12;dashed=1;html=1;fontSize=10;" edge="1" parent="1">
          <mxGeometry width="160" relative="1" as="geometry">
            <mxPoint x="370" y="170" as="sourcePoint" />
            <mxPoint x="250" y="270" as="targetPoint" />
          </mxGeometry>
        </mxCell>
        <mxCell id="Ar353TBJQhKHL542_Uao-38" value="Use" style="endArrow=open;endSize=12;dashed=1;html=1;fontSize=10;" edge="1" parent="1">
          <mxGeometry width="160" relative="1" as="geometry">
            <mxPoint x="370" y="170" as="sourcePoint" />
            <mxPoint x="530" y="270" as="targetPoint" />
          </mxGeometry>
        </mxCell>
        <mxCell id="Ar353TBJQhKHL542_Uao-39" value="Use" style="endArrow=open;endSize=12;dashed=1;html=1;fontSize=10;entryX=0.5;entryY=0;entryDx=0;entryDy=0;" edge="1" target="Ar353TBJQhKHL542_Uao-27" parent="1">
          <mxGeometry width="160" relative="1" as="geometry">
            <mxPoint x="370" y="170" as="sourcePoint" />
            <mxPoint x="650" y="200" as="targetPoint" />
          </mxGeometry>
        </mxCell>
      </root>
    </mxGraphModel>
  </diagram>
  <diagram name="gdb反向调试部件" id="G9pBtiIYhV4nZAvFLvtc">
    <mxGraphModel dx="1822" dy="793" grid="0" gridSize="10" guides="1" tooltips="1" connect="1" arrows="1" fold="1" page="0" pageScale="1" pageWidth="827" pageHeight="1169" math="0" shadow="0">
      <root>
        <mxCell id="Pd5vmDU5w1zhDZJmzsnv-0" />
        <mxCell id="Pd5vmDU5w1zhDZJmzsnv-1" parent="Pd5vmDU5w1zhDZJmzsnv-0" />
        <mxCell id="yfTUtuXkHlz3bmCeMpp9-0" value="&lt;p class=&quot;MsoNormal&quot; style=&quot;margin: 0pt 0pt 0.0001pt ; text-align: justify ; font-family: &amp;#34;times new roman&amp;#34;&quot;&gt;&lt;span&gt;&lt;b&gt;&lt;font face=&quot;Times New Roman&quot; style=&quot;font-size: 12px&quot;&gt;gdb&lt;/font&gt;&lt;font face=&quot;宋体&quot; style=&quot;font-size: 12px&quot;&gt;反向调试部件&lt;/font&gt;&lt;/b&gt;&lt;/span&gt;&lt;/p&gt;" style="shape=module;align=left;spacingLeft=20;align=center;verticalAlign=top;fontColor=#000000;html=1;" parent="Pd5vmDU5w1zhDZJmzsnv-1" vertex="1">
          <mxGeometry x="658" y="69" width="483" height="216" as="geometry" />
        </mxCell>
        <mxCell id="szG2uBkOx_xNlA5RenIt-4" value="&lt;p style=&quot;margin: 0px ; margin-top: 4px ; text-align: center&quot;&gt;&lt;b&gt;RecordFile&lt;/b&gt;&lt;/p&gt;&lt;hr size=&quot;1&quot;&gt;&lt;div style=&quot;height: 2px&quot;&gt;&lt;/div&gt;&lt;hr size=&quot;1&quot;&gt;&lt;div style=&quot;height: 2px&quot;&gt;&lt;/div&gt;" style="verticalAlign=top;align=left;overflow=fill;fontSize=12;fontFamily=Helvetica;html=1;" parent="Pd5vmDU5w1zhDZJmzsnv-1" vertex="1">
          <mxGeometry x="213" y="121" width="140" height="60" as="geometry" />
        </mxCell>
        <mxCell id="szG2uBkOx_xNlA5RenIt-5" value="&lt;p style=&quot;margin: 4px 0px 0px ; text-align: center&quot;&gt;&lt;span style=&quot;text-align: justify&quot;&gt;&lt;font style=&quot;font-size: 12px&quot;&gt;&lt;b&gt;FileConfig&lt;/b&gt;&lt;/font&gt;&lt;/span&gt;&lt;/p&gt;&lt;hr size=&quot;1&quot;&gt;&lt;div style=&quot;height: 2px&quot;&gt;&lt;/div&gt;&lt;hr size=&quot;1&quot;&gt;&lt;div style=&quot;height: 2px&quot;&gt;&lt;/div&gt;" style="verticalAlign=top;align=left;overflow=fill;fontSize=12;fontFamily=Helvetica;html=1;" parent="Pd5vmDU5w1zhDZJmzsnv-1" vertex="1">
          <mxGeometry x="213" y="261" width="140" height="60" as="geometry" />
        </mxCell>
        <mxCell id="szG2uBkOx_xNlA5RenIt-9" value="&lt;p style=&quot;margin: 4px 0px 0px ; text-align: center&quot;&gt;&lt;span style=&quot;text-align: justify&quot;&gt;&lt;font style=&quot;font-size: 12px&quot;&gt;&lt;b&gt;DebugTracker&lt;/b&gt;&lt;/font&gt;&lt;/span&gt;&lt;/p&gt;&lt;hr size=&quot;1&quot;&gt;&lt;div style=&quot;height: 2px&quot;&gt;&lt;/div&gt;&lt;hr size=&quot;1&quot;&gt;&lt;div style=&quot;height: 2px&quot;&gt;&lt;/div&gt;" style="verticalAlign=top;align=left;overflow=fill;fontSize=12;fontFamily=Helvetica;html=1;" parent="Pd5vmDU5w1zhDZJmzsnv-1" vertex="1">
          <mxGeometry x="443" y="261" width="140" height="60" as="geometry" />
        </mxCell>
        <mxCell id="szG2uBkOx_xNlA5RenIt-10" value="&lt;p style=&quot;margin: 4px 0px 0px ; text-align: center&quot;&gt;&lt;span style=&quot;text-align: justify&quot;&gt;&lt;font style=&quot;font-size: 12px&quot;&gt;&lt;b&gt;RecordMemory&lt;/b&gt;&lt;/font&gt;&lt;/span&gt;&lt;/p&gt;&lt;hr size=&quot;1&quot;&gt;&lt;div style=&quot;height: 2px&quot;&gt;&lt;/div&gt;&lt;hr size=&quot;1&quot;&gt;&lt;div style=&quot;height: 2px&quot;&gt;&lt;/div&gt;" style="verticalAlign=top;align=left;overflow=fill;fontSize=12;fontFamily=Helvetica;html=1;" parent="Pd5vmDU5w1zhDZJmzsnv-1" vertex="1">
          <mxGeometry x="443" y="121" width="140" height="60" as="geometry" />
        </mxCell>
        <mxCell id="EL0YbPnHCkMoLTbisneU-0" value="Use" style="endArrow=open;endSize=12;dashed=1;html=1;fontColor=#000000;exitX=0.5;exitY=1;exitDx=0;exitDy=0;" parent="Pd5vmDU5w1zhDZJmzsnv-1" source="szG2uBkOx_xNlA5RenIt-4" edge="1">
          <mxGeometry width="160" relative="1" as="geometry">
            <mxPoint x="283" y="191" as="sourcePoint" />
            <mxPoint x="283" y="261" as="targetPoint" />
          </mxGeometry>
        </mxCell>
        <mxCell id="EL0YbPnHCkMoLTbisneU-1" value="Use" style="endArrow=open;endSize=12;dashed=1;html=1;fontColor=#000000;exitX=0.5;exitY=1;exitDx=0;exitDy=0;entryX=0.5;entryY=0;entryDx=0;entryDy=0;" parent="Pd5vmDU5w1zhDZJmzsnv-1" source="szG2uBkOx_xNlA5RenIt-10" target="szG2uBkOx_xNlA5RenIt-9" edge="1">
          <mxGeometry width="160" relative="1" as="geometry">
            <mxPoint x="383" y="121" as="sourcePoint" />
            <mxPoint x="543" y="121" as="targetPoint" />
          </mxGeometry>
        </mxCell>
        <mxCell id="EL0YbPnHCkMoLTbisneU-2" value="Use" style="endArrow=open;endSize=12;dashed=1;html=1;fontColor=#000000;exitX=0;exitY=0.5;exitDx=0;exitDy=0;" parent="Pd5vmDU5w1zhDZJmzsnv-1" source="szG2uBkOx_xNlA5RenIt-10" edge="1">
          <mxGeometry width="160" relative="1" as="geometry">
            <mxPoint x="383" y="121" as="sourcePoint" />
            <mxPoint x="353" y="151" as="targetPoint" />
          </mxGeometry>
        </mxCell>
        <mxCell id="z9grhflYsOpg_-Zk4_BL-0" value="" style="shape=umlLifeline;participant=umlActor;perimeter=lifelinePerimeter;whiteSpace=wrap;html=1;container=1;collapsible=0;recursiveResize=0;verticalAlign=top;spacingTop=36;outlineConnect=0;fontColor=#000000;" parent="Pd5vmDU5w1zhDZJmzsnv-1" vertex="1">
          <mxGeometry x="101" y="442" width="20" height="361" as="geometry" />
        </mxCell>
        <mxCell id="z9grhflYsOpg_-Zk4_BL-1" value="FileConfig:Object" style="shape=umlLifeline;perimeter=lifelinePerimeter;whiteSpace=wrap;html=1;container=1;collapsible=0;recursiveResize=0;outlineConnect=0;fontColor=#000000;align=left;verticalAlign=top;" parent="Pd5vmDU5w1zhDZJmzsnv-1" vertex="1">
          <mxGeometry x="243" y="442" width="100" height="367" as="geometry" />
        </mxCell>
        <mxCell id="z9grhflYsOpg_-Zk4_BL-2" value="" style="html=1;points=[];perimeter=orthogonalPerimeter;fontColor=#000000;align=left;verticalAlign=top;" parent="Pd5vmDU5w1zhDZJmzsnv-1" vertex="1">
          <mxGeometry x="283" y="512" width="10" height="25" as="geometry" />
        </mxCell>
        <mxCell id="z9grhflYsOpg_-Zk4_BL-3" value="设置文件路径名称" style="html=1;verticalAlign=bottom;endArrow=block;entryX=0;entryY=0;fontColor=#000000;" parent="Pd5vmDU5w1zhDZJmzsnv-1" target="z9grhflYsOpg_-Zk4_BL-2" edge="1">
          <mxGeometry relative="1" as="geometry">
            <mxPoint x="110.5" y="512" as="sourcePoint" />
          </mxGeometry>
        </mxCell>
        <mxCell id="z9grhflYsOpg_-Zk4_BL-4" value="return" style="html=1;verticalAlign=bottom;endArrow=open;dashed=1;endSize=8;exitX=0;exitY=0.95;fontColor=#000000;" parent="Pd5vmDU5w1zhDZJmzsnv-1" source="z9grhflYsOpg_-Zk4_BL-2" edge="1">
          <mxGeometry relative="1" as="geometry">
            <mxPoint x="110.5" y="535.75" as="targetPoint" />
          </mxGeometry>
        </mxCell>
        <mxCell id="z9grhflYsOpg_-Zk4_BL-5" value="" style="html=1;points=[];perimeter=orthogonalPerimeter;fontColor=#000000;align=left;verticalAlign=top;" parent="Pd5vmDU5w1zhDZJmzsnv-1" vertex="1">
          <mxGeometry x="283" y="576" width="10" height="25" as="geometry" />
        </mxCell>
        <mxCell id="z9grhflYsOpg_-Zk4_BL-6" value="设置记录数量限制" style="html=1;verticalAlign=bottom;endArrow=block;entryX=0;entryY=0;fontColor=#000000;" parent="Pd5vmDU5w1zhDZJmzsnv-1" target="z9grhflYsOpg_-Zk4_BL-5" edge="1">
          <mxGeometry relative="1" as="geometry">
            <mxPoint x="110.5" y="576" as="sourcePoint" />
          </mxGeometry>
        </mxCell>
        <mxCell id="z9grhflYsOpg_-Zk4_BL-7" value="return" style="html=1;verticalAlign=bottom;endArrow=open;dashed=1;endSize=8;exitX=0;exitY=0.95;fontColor=#000000;" parent="Pd5vmDU5w1zhDZJmzsnv-1" source="z9grhflYsOpg_-Zk4_BL-5" edge="1">
          <mxGeometry relative="1" as="geometry">
            <mxPoint x="110.5" y="599.75" as="targetPoint" />
          </mxGeometry>
        </mxCell>
        <mxCell id="z9grhflYsOpg_-Zk4_BL-8" value=":DebugTracker" style="shape=umlLifeline;perimeter=lifelinePerimeter;whiteSpace=wrap;html=1;container=1;collapsible=0;recursiveResize=0;outlineConnect=0;fontColor=#000000;align=left;verticalAlign=top;" parent="Pd5vmDU5w1zhDZJmzsnv-1" vertex="1">
          <mxGeometry x="395" y="442" width="100" height="368" as="geometry" />
        </mxCell>
        <mxCell id="z9grhflYsOpg_-Zk4_BL-14" value="" style="html=1;points=[];perimeter=orthogonalPerimeter;fontColor=#000000;align=left;verticalAlign=top;" parent="z9grhflYsOpg_-Zk4_BL-8" vertex="1">
          <mxGeometry x="48" y="230" width="10" height="40" as="geometry" />
        </mxCell>
        <mxCell id="z9grhflYsOpg_-Zk4_BL-15" value="发送命令&lt;br&gt;捕捉消息" style="edgeStyle=orthogonalEdgeStyle;html=1;align=left;spacingLeft=2;endArrow=block;rounded=0;entryX=1;entryY=0;fontColor=#000000;" parent="z9grhflYsOpg_-Zk4_BL-8" target="z9grhflYsOpg_-Zk4_BL-14" edge="1">
          <mxGeometry relative="1" as="geometry">
            <mxPoint x="53" y="210" as="sourcePoint" />
            <Array as="points">
              <mxPoint x="83" y="210" />
            </Array>
          </mxGeometry>
        </mxCell>
        <mxCell id="z9grhflYsOpg_-Zk4_BL-9" value=":RecordMemory" style="shape=umlLifeline;perimeter=lifelinePerimeter;whiteSpace=wrap;html=1;container=1;collapsible=0;recursiveResize=0;outlineConnect=0;fontColor=#000000;align=left;verticalAlign=top;" parent="Pd5vmDU5w1zhDZJmzsnv-1" vertex="1">
          <mxGeometry x="541" y="438" width="100" height="361" as="geometry" />
        </mxCell>
        <mxCell id="z9grhflYsOpg_-Zk4_BL-10" value=":RecordFile" style="shape=umlLifeline;perimeter=lifelinePerimeter;whiteSpace=wrap;html=1;container=1;collapsible=0;recursiveResize=0;outlineConnect=0;fontColor=#000000;align=left;verticalAlign=top;" parent="Pd5vmDU5w1zhDZJmzsnv-1" vertex="1">
          <mxGeometry x="682" y="438" width="100" height="364" as="geometry" />
        </mxCell>
        <mxCell id="z9grhflYsOpg_-Zk4_BL-11" value="开始录制" style="html=1;verticalAlign=bottom;endArrow=block;fontColor=#000000;" parent="Pd5vmDU5w1zhDZJmzsnv-1" edge="1">
          <mxGeometry width="80" relative="1" as="geometry">
            <mxPoint x="110.5" y="638" as="sourcePoint" />
            <mxPoint x="444.5" y="638" as="targetPoint" />
            <Array as="points">
              <mxPoint x="321" y="638" />
            </Array>
          </mxGeometry>
        </mxCell>
        <mxCell id="z9grhflYsOpg_-Zk4_BL-12" value="存储调试信息" style="html=1;verticalAlign=bottom;endArrow=block;fontColor=#000000;" parent="Pd5vmDU5w1zhDZJmzsnv-1" edge="1">
          <mxGeometry width="80" relative="1" as="geometry">
            <mxPoint x="446" y="722" as="sourcePoint" />
            <mxPoint x="592" y="722" as="targetPoint" />
            <Array as="points">
              <mxPoint x="468.5" y="722" />
            </Array>
          </mxGeometry>
        </mxCell>
        <mxCell id="z9grhflYsOpg_-Zk4_BL-13" value="存储调试信息到文件" style="html=1;verticalAlign=bottom;endArrow=block;fontColor=#000000;" parent="Pd5vmDU5w1zhDZJmzsnv-1" edge="1">
          <mxGeometry width="80" relative="1" as="geometry">
            <mxPoint x="589" y="759" as="sourcePoint" />
            <mxPoint x="735" y="759" as="targetPoint" />
            <Array as="points">
              <mxPoint x="611.5" y="759" />
            </Array>
          </mxGeometry>
        </mxCell>
        <mxCell id="z9grhflYsOpg_-Zk4_BL-17" value="创建或打开日志文件" style="html=1;verticalAlign=bottom;endArrow=block;fontColor=#000000;" parent="Pd5vmDU5w1zhDZJmzsnv-1" edge="1">
          <mxGeometry width="80" relative="1" as="geometry">
            <mxPoint x="288" y="524" as="sourcePoint" />
            <mxPoint x="731.5" y="524" as="targetPoint" />
            <Array as="points">
              <mxPoint x="319.5" y="524" />
            </Array>
          </mxGeometry>
        </mxCell>
        <mxCell id="z9grhflYsOpg_-Zk4_BL-18" value="" style="shape=umlLifeline;participant=umlActor;perimeter=lifelinePerimeter;whiteSpace=wrap;html=1;container=1;collapsible=0;recursiveResize=0;verticalAlign=top;spacingTop=36;outlineConnect=0;fontColor=#000000;" parent="Pd5vmDU5w1zhDZJmzsnv-1" vertex="1">
          <mxGeometry x="77" y="923" width="20" height="532" as="geometry" />
        </mxCell>
        <mxCell id="z9grhflYsOpg_-Zk4_BL-19" value="FileConfig:Object" style="shape=umlLifeline;perimeter=lifelinePerimeter;whiteSpace=wrap;html=1;container=1;collapsible=0;recursiveResize=0;outlineConnect=0;fontColor=#000000;align=left;verticalAlign=top;" parent="Pd5vmDU5w1zhDZJmzsnv-1" vertex="1">
          <mxGeometry x="219" y="923" width="100" height="545" as="geometry" />
        </mxCell>
        <mxCell id="z9grhflYsOpg_-Zk4_BL-21" value="停止记录" style="html=1;verticalAlign=bottom;endArrow=block;fontColor=#000000;" parent="Pd5vmDU5w1zhDZJmzsnv-1" target="z9grhflYsOpg_-Zk4_BL-26" edge="1">
          <mxGeometry relative="1" as="geometry">
            <mxPoint x="86.5" y="993" as="sourcePoint" />
            <mxPoint x="259" y="993" as="targetPoint" />
          </mxGeometry>
        </mxCell>
        <mxCell id="z9grhflYsOpg_-Zk4_BL-26" value=":DebugTracker" style="shape=umlLifeline;perimeter=lifelinePerimeter;whiteSpace=wrap;html=1;container=1;collapsible=0;recursiveResize=0;outlineConnect=0;fontColor=#000000;align=left;verticalAlign=top;" parent="Pd5vmDU5w1zhDZJmzsnv-1" vertex="1">
          <mxGeometry x="371" y="923" width="100" height="542" as="geometry" />
        </mxCell>
        <mxCell id="z9grhflYsOpg_-Zk4_BL-29" value=":RecordMemory" style="shape=umlLifeline;perimeter=lifelinePerimeter;whiteSpace=wrap;html=1;container=1;collapsible=0;recursiveResize=0;outlineConnect=0;fontColor=#000000;align=left;verticalAlign=top;" parent="Pd5vmDU5w1zhDZJmzsnv-1" vertex="1">
          <mxGeometry x="517" y="919" width="100" height="548" as="geometry" />
        </mxCell>
        <mxCell id="z9grhflYsOpg_-Zk4_BL-30" value=":RecordFile" style="shape=umlLifeline;perimeter=lifelinePerimeter;whiteSpace=wrap;html=1;container=1;collapsible=0;recursiveResize=0;outlineConnect=0;fontColor=#000000;align=left;verticalAlign=top;" parent="Pd5vmDU5w1zhDZJmzsnv-1" vertex="1">
          <mxGeometry x="658" y="919" width="100" height="551" as="geometry" />
        </mxCell>
        <mxCell id="z9grhflYsOpg_-Zk4_BL-34" value="保存日志文件" style="html=1;verticalAlign=bottom;endArrow=block;fontColor=#000000;" parent="Pd5vmDU5w1zhDZJmzsnv-1" edge="1">
          <mxGeometry width="80" relative="1" as="geometry">
            <mxPoint x="568" y="1033" as="sourcePoint" />
            <mxPoint x="704" y="1033" as="targetPoint" />
            <Array as="points" />
          </mxGeometry>
        </mxCell>
        <mxCell id="z9grhflYsOpg_-Zk4_BL-35" value="" style="html=1;points=[];perimeter=orthogonalPerimeter;fontColor=#000000;align=left;verticalAlign=top;" parent="Pd5vmDU5w1zhDZJmzsnv-1" vertex="1">
          <mxGeometry x="557" y="1063" width="10" height="78" as="geometry" />
        </mxCell>
        <mxCell id="z9grhflYsOpg_-Zk4_BL-36" value="第一条记录" style="html=1;verticalAlign=bottom;endArrow=block;entryX=0;entryY=0;fontColor=#000000;" parent="Pd5vmDU5w1zhDZJmzsnv-1" target="z9grhflYsOpg_-Zk4_BL-35" edge="1">
          <mxGeometry relative="1" as="geometry">
            <mxPoint x="86.5" y="1063" as="sourcePoint" />
          </mxGeometry>
        </mxCell>
        <mxCell id="z9grhflYsOpg_-Zk4_BL-37" value="return" style="html=1;verticalAlign=bottom;endArrow=open;dashed=1;endSize=8;exitX=0;exitY=0.95;fontColor=#000000;" parent="Pd5vmDU5w1zhDZJmzsnv-1" source="z9grhflYsOpg_-Zk4_BL-35" target="z9grhflYsOpg_-Zk4_BL-18" edge="1">
          <mxGeometry relative="1" as="geometry">
            <mxPoint x="86.5" y="1093.4" as="targetPoint" />
          </mxGeometry>
        </mxCell>
        <mxCell id="z9grhflYsOpg_-Zk4_BL-38" value="停止记录" style="html=1;verticalAlign=bottom;endArrow=block;fontColor=#000000;" parent="Pd5vmDU5w1zhDZJmzsnv-1" edge="1">
          <mxGeometry width="80" relative="1" as="geometry">
            <mxPoint x="420" y="1015" as="sourcePoint" />
            <mxPoint x="566.5" y="1015" as="targetPoint" />
            <Array as="points" />
          </mxGeometry>
        </mxCell>
        <mxCell id="z9grhflYsOpg_-Zk4_BL-46" value="" style="html=1;points=[];perimeter=orthogonalPerimeter;fontColor=#000000;align=left;verticalAlign=top;" parent="Pd5vmDU5w1zhDZJmzsnv-1" vertex="1">
          <mxGeometry x="698" y="1078" width="10" height="32" as="geometry" />
        </mxCell>
        <mxCell id="z9grhflYsOpg_-Zk4_BL-47" value="加载日志文件到内存" style="html=1;verticalAlign=bottom;endArrow=block;fontColor=#000000;" parent="Pd5vmDU5w1zhDZJmzsnv-1" edge="1">
          <mxGeometry width="80" relative="1" as="geometry">
            <mxPoint x="567" y="1081" as="sourcePoint" />
            <mxPoint x="696" y="1081" as="targetPoint" />
            <Array as="points" />
          </mxGeometry>
        </mxCell>
        <mxCell id="z9grhflYsOpg_-Zk4_BL-48" value="return" style="html=1;verticalAlign=bottom;endArrow=open;dashed=1;endSize=8;exitX=0.184;exitY=0.922;fontColor=#000000;entryX=1.201;entryY=0.571;entryDx=0;entryDy=0;entryPerimeter=0;exitDx=0;exitDy=0;exitPerimeter=0;" parent="Pd5vmDU5w1zhDZJmzsnv-1" source="z9grhflYsOpg_-Zk4_BL-46" target="z9grhflYsOpg_-Zk4_BL-35" edge="1">
          <mxGeometry relative="1" as="geometry">
            <mxPoint x="219" y="1109" as="targetPoint" />
            <mxPoint x="689.5" y="1109" as="sourcePoint" />
          </mxGeometry>
        </mxCell>
        <mxCell id="z9grhflYsOpg_-Zk4_BL-27" value="" style="html=1;points=[];perimeter=orthogonalPerimeter;fontColor=#000000;align=left;verticalAlign=top;" parent="Pd5vmDU5w1zhDZJmzsnv-1" vertex="1">
          <mxGeometry x="567" y="1203" width="10" height="40" as="geometry" />
        </mxCell>
        <mxCell id="z9grhflYsOpg_-Zk4_BL-28" value="定位到下一条" style="edgeStyle=orthogonalEdgeStyle;html=1;align=left;spacingLeft=2;endArrow=block;rounded=0;entryX=1;entryY=0;fontColor=#000000;" parent="Pd5vmDU5w1zhDZJmzsnv-1" target="z9grhflYsOpg_-Zk4_BL-27" edge="1">
          <mxGeometry relative="1" as="geometry">
            <mxPoint x="572" y="1183" as="sourcePoint" />
            <Array as="points">
              <mxPoint x="602" y="1183" />
            </Array>
          </mxGeometry>
        </mxCell>
        <mxCell id="z9grhflYsOpg_-Zk4_BL-52" value="" style="html=1;points=[];perimeter=orthogonalPerimeter;fontColor=#000000;align=left;verticalAlign=top;" parent="Pd5vmDU5w1zhDZJmzsnv-1" vertex="1">
          <mxGeometry x="557" y="1167" width="10" height="97" as="geometry" />
        </mxCell>
        <mxCell id="z9grhflYsOpg_-Zk4_BL-53" value="下一条记录" style="html=1;verticalAlign=bottom;endArrow=block;entryX=0;entryY=0;fontColor=#000000;" parent="Pd5vmDU5w1zhDZJmzsnv-1" target="z9grhflYsOpg_-Zk4_BL-52" edge="1">
          <mxGeometry relative="1" as="geometry">
            <mxPoint x="86.5" y="1167" as="sourcePoint" />
            <Array as="points">
              <mxPoint x="268" y="1167" />
            </Array>
          </mxGeometry>
        </mxCell>
        <mxCell id="z9grhflYsOpg_-Zk4_BL-54" value="return" style="html=1;verticalAlign=bottom;endArrow=open;dashed=1;endSize=8;exitX=0;exitY=0.95;fontColor=#000000;" parent="Pd5vmDU5w1zhDZJmzsnv-1" source="z9grhflYsOpg_-Zk4_BL-52" target="z9grhflYsOpg_-Zk4_BL-18" edge="1">
          <mxGeometry relative="1" as="geometry">
            <mxPoint x="86.5" y="1241.1" as="targetPoint" />
          </mxGeometry>
        </mxCell>
        <mxCell id="z9grhflYsOpg_-Zk4_BL-55" value="" style="html=1;points=[];perimeter=orthogonalPerimeter;fontColor=#000000;align=left;verticalAlign=top;" parent="Pd5vmDU5w1zhDZJmzsnv-1" vertex="1">
          <mxGeometry x="569" y="1352" width="10" height="40" as="geometry" />
        </mxCell>
        <mxCell id="z9grhflYsOpg_-Zk4_BL-56" value="定位到下一条" style="edgeStyle=orthogonalEdgeStyle;html=1;align=left;spacingLeft=2;endArrow=block;rounded=0;entryX=1;entryY=0;fontColor=#000000;" parent="Pd5vmDU5w1zhDZJmzsnv-1" target="z9grhflYsOpg_-Zk4_BL-55" edge="1">
          <mxGeometry relative="1" as="geometry">
            <mxPoint x="574" y="1332" as="sourcePoint" />
            <Array as="points">
              <mxPoint x="604" y="1332" />
            </Array>
          </mxGeometry>
        </mxCell>
        <mxCell id="z9grhflYsOpg_-Zk4_BL-57" value="" style="html=1;points=[];perimeter=orthogonalPerimeter;fontColor=#000000;align=left;verticalAlign=top;" parent="Pd5vmDU5w1zhDZJmzsnv-1" vertex="1">
          <mxGeometry x="559" y="1316" width="10" height="97" as="geometry" />
        </mxCell>
        <mxCell id="z9grhflYsOpg_-Zk4_BL-58" value="最后一条记录" style="html=1;verticalAlign=bottom;endArrow=block;entryX=0;entryY=0;fontColor=#000000;" parent="Pd5vmDU5w1zhDZJmzsnv-1" target="z9grhflYsOpg_-Zk4_BL-57" edge="1">
          <mxGeometry relative="1" as="geometry">
            <mxPoint x="88.5" y="1316" as="sourcePoint" />
            <Array as="points">
              <mxPoint x="270" y="1316" />
            </Array>
          </mxGeometry>
        </mxCell>
        <mxCell id="z9grhflYsOpg_-Zk4_BL-59" value="return" style="html=1;verticalAlign=bottom;endArrow=open;dashed=1;endSize=8;exitX=0;exitY=0.95;fontColor=#000000;" parent="Pd5vmDU5w1zhDZJmzsnv-1" source="z9grhflYsOpg_-Zk4_BL-57" edge="1">
          <mxGeometry relative="1" as="geometry">
            <mxPoint x="88.5" y="1408.15" as="targetPoint" />
          </mxGeometry>
        </mxCell>
        <mxCell id="UnHqF5jYUm8Dx52hAD4z-1" value="&lt;p style=&quot;margin:0px;margin-top:4px;text-align:center;&quot;&gt;&lt;b&gt;Class&lt;/b&gt;&lt;/p&gt;&lt;hr size=&quot;1&quot;/&gt;&lt;p style=&quot;margin:0px;margin-left:4px;&quot;&gt;+ field: Type&lt;/p&gt;&lt;hr size=&quot;1&quot;/&gt;&lt;p style=&quot;margin:0px;margin-left:4px;&quot;&gt;+ method(): Type&lt;/p&gt;" style="verticalAlign=top;align=left;overflow=fill;fontSize=12;fontFamily=Helvetica;html=1;hachureGap=4;pointerEvents=0;" vertex="1" parent="Pd5vmDU5w1zhDZJmzsnv-1">
          <mxGeometry x="692" y="131" width="160" height="90" as="geometry" />
        </mxCell>
        <mxCell id="UnHqF5jYUm8Dx52hAD4z-2" value="&lt;p style=&quot;margin:0px;margin-top:4px;text-align:center;&quot;&gt;&lt;b&gt;Class&lt;/b&gt;&lt;/p&gt;&lt;hr size=&quot;1&quot;/&gt;&lt;p style=&quot;margin:0px;margin-left:4px;&quot;&gt;+ field: Type&lt;/p&gt;&lt;hr size=&quot;1&quot;/&gt;&lt;p style=&quot;margin:0px;margin-left:4px;&quot;&gt;+ method(): Type&lt;/p&gt;" style="verticalAlign=top;align=left;overflow=fill;fontSize=12;fontFamily=Helvetica;html=1;hachureGap=4;pointerEvents=0;" vertex="1" parent="Pd5vmDU5w1zhDZJmzsnv-1">
          <mxGeometry x="971" y="129" width="160" height="90" as="geometry" />
        </mxCell>
        <mxCell id="UnHqF5jYUm8Dx52hAD4z-3" value="Use" style="endArrow=open;endSize=12;dashed=1;html=1;sourcePerimeterSpacing=8;targetPerimeterSpacing=8;" edge="1" parent="Pd5vmDU5w1zhDZJmzsnv-1">
          <mxGeometry width="160" relative="1" as="geometry">
            <mxPoint x="854" y="181" as="sourcePoint" />
            <mxPoint x="971" y="181" as="targetPoint" />
          </mxGeometry>
        </mxCell>
        <mxCell id="UnHqF5jYUm8Dx52hAD4z-4" value="Extends" style="endArrow=block;endSize=16;endFill=0;html=1;sourcePerimeterSpacing=8;targetPerimeterSpacing=8;" edge="1" parent="Pd5vmDU5w1zhDZJmzsnv-1">
          <mxGeometry width="160" relative="1" as="geometry">
            <mxPoint x="682" y="329" as="sourcePoint" />
            <mxPoint x="842" y="329" as="targetPoint" />
          </mxGeometry>
        </mxCell>
        <mxCell id="UnHqF5jYUm8Dx52hAD4z-5" value="" style="shape=umlLifeline;participant=umlActor;perimeter=lifelinePerimeter;whiteSpace=wrap;html=1;container=1;collapsible=0;recursiveResize=0;verticalAlign=top;spacingTop=36;outlineConnect=0;hachureGap=4;pointerEvents=0;" vertex="1" parent="Pd5vmDU5w1zhDZJmzsnv-1">
          <mxGeometry x="-232" y="519" width="20" height="300" as="geometry" />
        </mxCell>
        <mxCell id="UnHqF5jYUm8Dx52hAD4z-6" value=":Object" style="shape=umlLifeline;perimeter=lifelinePerimeter;whiteSpace=wrap;html=1;container=1;collapsible=0;recursiveResize=0;outlineConnect=0;hachureGap=4;pointerEvents=0;" vertex="1" parent="Pd5vmDU5w1zhDZJmzsnv-1">
          <mxGeometry x="-111" y="522" width="100" height="300" as="geometry" />
        </mxCell>
        <mxCell id="UnHqF5jYUm8Dx52hAD4z-9" value="" style="html=1;points=[];perimeter=orthogonalPerimeter;hachureGap=4;pointerEvents=0;" vertex="1" parent="UnHqF5jYUm8Dx52hAD4z-6">
          <mxGeometry x="41" y="168" width="10" height="80" as="geometry" />
        </mxCell>
        <mxCell id="UnHqF5jYUm8Dx52hAD4z-7" value="123" style="html=1;verticalAlign=bottom;endArrow=block;startSize=14;endSize=14;sourcePerimeterSpacing=8;targetPerimeterSpacing=8;" edge="1" parent="Pd5vmDU5w1zhDZJmzsnv-1">
          <mxGeometry width="80" relative="1" as="geometry">
            <mxPoint x="-222.5" y="636" as="sourcePoint" />
            <mxPoint x="-61.5" y="636" as="targetPoint" />
          </mxGeometry>
        </mxCell>
        <mxCell id="UnHqF5jYUm8Dx52hAD4z-10" value="dispatch" style="html=1;verticalAlign=bottom;endArrow=block;entryX=0;entryY=0;startSize=14;endSize=14;sourcePerimeterSpacing=8;targetPerimeterSpacing=8;" edge="1" target="UnHqF5jYUm8Dx52hAD4z-9" parent="Pd5vmDU5w1zhDZJmzsnv-1" source="UnHqF5jYUm8Dx52hAD4z-5">
          <mxGeometry relative="1" as="geometry">
            <mxPoint x="-201" y="691" as="sourcePoint" />
          </mxGeometry>
        </mxCell>
        <mxCell id="UnHqF5jYUm8Dx52hAD4z-11" value="return" style="html=1;verticalAlign=bottom;endArrow=open;dashed=1;endSize=8;exitX=0;exitY=0.95;sourcePerimeterSpacing=8;targetPerimeterSpacing=8;" edge="1" source="UnHqF5jYUm8Dx52hAD4z-9" parent="Pd5vmDU5w1zhDZJmzsnv-1" target="UnHqF5jYUm8Dx52hAD4z-5">
          <mxGeometry relative="1" as="geometry">
            <mxPoint x="-201" y="767" as="targetPoint" />
          </mxGeometry>
        </mxCell>
      </root>
    </mxGraphModel>
  </diagram>
</mxfile>
